<mxfile host="app.diagrams.net" agent="Mozilla/5.0 (X11; Ubuntu; Linux x86_64; rv:143.0) Gecko/20100101 Firefox/143.0" version="28.2.1">
  <diagram name="Page-1" id="k1oH8KssfGZDbfOdB9sB">
    <mxGraphModel dx="1426" dy="826" grid="1" gridSize="10" guides="1" tooltips="1" connect="1" arrows="1" fold="1" page="1" pageScale="1" pageWidth="827" pageHeight="1169" math="0" shadow="0">
      <root>
        <mxCell id="0" />
        <mxCell id="1" parent="0" />
        <mxCell id="7abYVFZJBeE3aacmD0-e-32" value="" style="rounded=0;whiteSpace=wrap;html=1;" vertex="1" parent="1">
          <mxGeometry x="160" y="360" width="410" height="670" as="geometry" />
        </mxCell>
        <mxCell id="7abYVFZJBeE3aacmD0-e-33" style="edgeStyle=orthogonalEdgeStyle;rounded=0;orthogonalLoop=1;jettySize=auto;html=1;endArrow=none;endFill=0;" edge="1" parent="1" source="7abYVFZJBeE3aacmD0-e-34" target="7abYVFZJBeE3aacmD0-e-36">
          <mxGeometry relative="1" as="geometry" />
        </mxCell>
        <mxCell id="7abYVFZJBeE3aacmD0-e-34" value="Logged-out user" style="shape=umlActor;verticalLabelPosition=bottom;verticalAlign=top;html=1;" vertex="1" parent="1">
          <mxGeometry x="650" y="400" width="30" height="60" as="geometry" />
        </mxCell>
        <mxCell id="7abYVFZJBeE3aacmD0-e-35" value="Account-Management" style="text;html=1;align=center;verticalAlign=middle;resizable=0;points=[];autosize=1;strokeColor=none;fillColor=none;" vertex="1" parent="1">
          <mxGeometry x="160" y="360" width="140" height="30" as="geometry" />
        </mxCell>
        <mxCell id="7abYVFZJBeE3aacmD0-e-36" value="Login" style="ellipse;whiteSpace=wrap;html=1;" vertex="1" parent="1">
          <mxGeometry x="413" y="410" width="80" height="40" as="geometry" />
        </mxCell>
        <mxCell id="7abYVFZJBeE3aacmD0-e-37" value="Authenticate with credentials" style="ellipse;whiteSpace=wrap;html=1;" vertex="1" parent="1">
          <mxGeometry x="200" y="490" width="130" height="50" as="geometry" />
        </mxCell>
        <mxCell id="7abYVFZJBeE3aacmD0-e-38" value="&amp;lt;&amp;lt;include&amp;gt;&amp;gt;" style="rounded=0;orthogonalLoop=1;jettySize=auto;html=1;entryX=0.574;entryY=0.023;entryDx=0;entryDy=0;entryPerimeter=0;endArrow=open;endFill=0;dashed=1;dashPattern=8 8;" edge="1" parent="1" source="7abYVFZJBeE3aacmD0-e-36" target="7abYVFZJBeE3aacmD0-e-37">
          <mxGeometry relative="1" as="geometry" />
        </mxCell>
        <mxCell id="7abYVFZJBeE3aacmD0-e-43" style="edgeStyle=orthogonalEdgeStyle;rounded=0;orthogonalLoop=1;jettySize=auto;html=1;endArrow=none;endFill=0;" edge="1" parent="1" source="7abYVFZJBeE3aacmD0-e-44" target="7abYVFZJBeE3aacmD0-e-47">
          <mxGeometry relative="1" as="geometry" />
        </mxCell>
        <mxCell id="7abYVFZJBeE3aacmD0-e-44" value="User without account" style="shape=umlActor;verticalLabelPosition=bottom;verticalAlign=top;html=1;" vertex="1" parent="1">
          <mxGeometry x="650" y="925" width="30" height="60" as="geometry" />
        </mxCell>
        <mxCell id="7abYVFZJBeE3aacmD0-e-45" value="&amp;lt;&amp;lt;include&amp;gt;&amp;gt;" style="rounded=0;orthogonalLoop=1;jettySize=auto;html=1;dashed=1;dashPattern=8 8;" edge="1" parent="1" source="7abYVFZJBeE3aacmD0-e-47" target="7abYVFZJBeE3aacmD0-e-48">
          <mxGeometry relative="1" as="geometry" />
        </mxCell>
        <mxCell id="7abYVFZJBeE3aacmD0-e-47" value="Signup" style="ellipse;whiteSpace=wrap;html=1;" vertex="1" parent="1">
          <mxGeometry x="413" y="935" width="80" height="40" as="geometry" />
        </mxCell>
        <mxCell id="7abYVFZJBeE3aacmD0-e-48" value="Configure account values" style="ellipse;whiteSpace=wrap;html=1;" vertex="1" parent="1">
          <mxGeometry x="190" y="877.5" width="130" height="57.5" as="geometry" />
        </mxCell>
        <mxCell id="7abYVFZJBeE3aacmD0-e-50" style="rounded=0;orthogonalLoop=1;jettySize=auto;html=1;endArrow=none;endFill=0;" edge="1" parent="1" source="7abYVFZJBeE3aacmD0-e-54" target="7abYVFZJBeE3aacmD0-e-57">
          <mxGeometry relative="1" as="geometry" />
        </mxCell>
        <mxCell id="7abYVFZJBeE3aacmD0-e-51" style="rounded=0;orthogonalLoop=1;jettySize=auto;html=1;endArrow=none;endFill=0;" edge="1" parent="1" source="7abYVFZJBeE3aacmD0-e-54" target="7abYVFZJBeE3aacmD0-e-58">
          <mxGeometry relative="1" as="geometry" />
        </mxCell>
        <mxCell id="7abYVFZJBeE3aacmD0-e-52" style="rounded=0;orthogonalLoop=1;jettySize=auto;html=1;endArrow=none;endFill=0;" edge="1" parent="1" source="7abYVFZJBeE3aacmD0-e-54" target="7abYVFZJBeE3aacmD0-e-59">
          <mxGeometry relative="1" as="geometry" />
        </mxCell>
        <mxCell id="7abYVFZJBeE3aacmD0-e-53" style="rounded=0;orthogonalLoop=1;jettySize=auto;html=1;endArrow=none;endFill=0;" edge="1" parent="1" source="7abYVFZJBeE3aacmD0-e-54" target="7abYVFZJBeE3aacmD0-e-61">
          <mxGeometry relative="1" as="geometry" />
        </mxCell>
        <mxCell id="7abYVFZJBeE3aacmD0-e-54" value="Logged-in user" style="shape=umlActor;verticalLabelPosition=bottom;verticalAlign=top;html=1;" vertex="1" parent="1">
          <mxGeometry x="650" y="555" width="30" height="60" as="geometry" />
        </mxCell>
        <mxCell id="7abYVFZJBeE3aacmD0-e-57" value="Logout" style="ellipse;whiteSpace=wrap;html=1;" vertex="1" parent="1">
          <mxGeometry x="413" y="510" width="90" height="45" as="geometry" />
        </mxCell>
        <mxCell id="7abYVFZJBeE3aacmD0-e-58" value="Change username" style="ellipse;whiteSpace=wrap;html=1;" vertex="1" parent="1">
          <mxGeometry x="413" y="575" width="90" height="45" as="geometry" />
        </mxCell>
        <mxCell id="7abYVFZJBeE3aacmD0-e-59" value="Change color" style="ellipse;whiteSpace=wrap;html=1;" vertex="1" parent="1">
          <mxGeometry x="408" y="645" width="90" height="45" as="geometry" />
        </mxCell>
        <mxCell id="7abYVFZJBeE3aacmD0-e-60" value="&amp;lt;&amp;lt;include&amp;gt;&amp;gt;" style="edgeStyle=orthogonalEdgeStyle;rounded=0;orthogonalLoop=1;jettySize=auto;html=1;dashed=1;dashPattern=8 8;endArrow=open;endFill=0;" edge="1" parent="1" source="7abYVFZJBeE3aacmD0-e-61" target="7abYVFZJBeE3aacmD0-e-62">
          <mxGeometry relative="1" as="geometry" />
        </mxCell>
        <mxCell id="7abYVFZJBeE3aacmD0-e-61" value="Change email" style="ellipse;whiteSpace=wrap;html=1;" vertex="1" parent="1">
          <mxGeometry x="413" y="705" width="90" height="45" as="geometry" />
        </mxCell>
        <mxCell id="7abYVFZJBeE3aacmD0-e-62" value="Verify email" style="ellipse;whiteSpace=wrap;html=1;" vertex="1" parent="1">
          <mxGeometry x="413" y="822.5" width="90" height="45" as="geometry" />
        </mxCell>
        <mxCell id="7abYVFZJBeE3aacmD0-e-63" style="edgeStyle=orthogonalEdgeStyle;rounded=0;orthogonalLoop=1;jettySize=auto;html=1;endArrow=none;endFill=0;" edge="1" parent="1" source="7abYVFZJBeE3aacmD0-e-65" target="7abYVFZJBeE3aacmD0-e-62">
          <mxGeometry relative="1" as="geometry" />
        </mxCell>
        <mxCell id="7abYVFZJBeE3aacmD0-e-64" style="edgeStyle=orthogonalEdgeStyle;rounded=0;orthogonalLoop=1;jettySize=auto;html=1;endArrow=block;endFill=0;" edge="1" parent="1" source="7abYVFZJBeE3aacmD0-e-65">
          <mxGeometry relative="1" as="geometry">
            <mxPoint x="665" y="635" as="targetPoint" />
          </mxGeometry>
        </mxCell>
        <mxCell id="7abYVFZJBeE3aacmD0-e-65" value="Unverified user" style="shape=umlActor;verticalLabelPosition=bottom;verticalAlign=top;html=1;" vertex="1" parent="1">
          <mxGeometry x="650" y="815" width="30" height="60" as="geometry" />
        </mxCell>
      </root>
    </mxGraphModel>
  </diagram>
</mxfile>
